<svg id="visual" viewBox="0 0 900 600" width="900" height="600" xmlns="http://www.w3.org/2000/svg" xmlns:xlink="http://www.w3.org/1999/xlink" version="1.1"><rect x="0" y="0" width="900" height="600" fill="#ff7a00"></rect><defs><linearGradient id="grad1_0" x1="33.3%" y1="100%" x2="100%" y2="0%"><stop offset="20%" stop-color="#ff7a00" stop-opacity="1"></stop><stop offset="80%" stop-color="#ff7a00" stop-opacity="1"></stop></linearGradient></defs><defs><linearGradient id="grad2_0" x1="0%" y1="100%" x2="66.7%" y2="0%"><stop offset="20%" stop-color="#ff7a00" stop-opacity="1"></stop><stop offset="80%" stop-color="#ff7a00" stop-opacity="1"></stop></linearGradient></defs><g transform="translate(900, 600)"><path d="M-378.6 0C-374.4 -49.8 -370.3 -99.7 -349.8 -144.9C-329.2 -190.1 -292.3 -230.7 -250.3 -250.3C-208.3 -269.9 -161.2 -268.5 -118.6 -286.4C-76.1 -304.3 -38 -341.4 0 -378.6L0 0Z" fill="#b35600"></path></g><g transform="translate(0, 0)"><path d="M378.6 0C356 46.8 333.4 93.6 304.9 126.3C276.4 159 242 177.7 217.8 217.8C193.6 257.9 179.5 319.4 144.9 349.8C110.3 380.1 55.1 379.4 0 378.6L0 0Z" fill="#b35600"></path></g></svg>