<svg id="visual" viewBox="0 0 900 600" width="900" height="600" xmlns="http://www.w3.org/2000/svg" xmlns:xlink="http://www.w3.org/1999/xlink" version="1.1"><rect x="0" y="0" width="900" height="600" fill="#0066FF"></rect><defs><linearGradient id="grad1_0" x1="33.3%" y1="100%" x2="100%" y2="0%"><stop offset="20%" stop-color="#0066ff" stop-opacity="1"></stop><stop offset="80%" stop-color="#0066ff" stop-opacity="1"></stop></linearGradient></defs><defs><linearGradient id="grad2_0" x1="0%" y1="100%" x2="66.7%" y2="0%"><stop offset="20%" stop-color="#0066ff" stop-opacity="1"></stop><stop offset="80%" stop-color="#0066ff" stop-opacity="1"></stop></linearGradient></defs><g transform="translate(900, 600)"><path d="M-243.4 0C-232.3 -28.2 -221.2 -56.3 -211.6 -87.6C-201.9 -118.9 -193.8 -153.3 -172.1 -172.1C-150.4 -190.9 -115.1 -194 -84.2 -203.3C-53.2 -212.5 -26.6 -228 0 -243.4L0 0Z" fill="#0043a8"></path></g><g transform="translate(0, 0)"><path d="M243.4 0C243.2 35.3 243.1 70.6 224.8 93.1C206.6 115.7 170.4 125.5 147.1 147.1C123.8 168.6 113.4 201.9 91.1 219.9C68.7 237.9 34.4 240.6 0 243.4L0 0Z" fill="#0043a8"></path></g></svg>